<?xml version="1.0" encoding="UTF-8" standalone="no"?>
<!-- Generator: Adobe Illustrator 15.1.0, SVG Export Plug-In . SVG Version: 6.00 Build 0)  -->

<svg
   xmlns:dc="http://purl.org/dc/elements/1.1/"
   xmlns:cc="http://creativecommons.org/ns#"
   xmlns:rdf="http://www.w3.org/1999/02/22-rdf-syntax-ns#"
   xmlns:svg="http://www.w3.org/2000/svg"
   xmlns="http://www.w3.org/2000/svg"
   xmlns:sodipodi="http://sodipodi.sourceforge.net/DTD/sodipodi-0.dtd"
   xmlns:inkscape="http://www.inkscape.org/namespaces/inkscape"
   version="1.1"
   id="Layer_1"
   x="0px"
   y="0px"
   width="100px"
   height="100px"
   viewBox="0 0 100 100"
   enable-background="new 0 0 100 100"
   xml:space="preserve"
   inkscape:version="0.48.4 r9939"
   sodipodi:docname="Cloud-Upload.svg"><metadata
   id="metadata9"><rdf:RDF><cc:Work
       rdf:about=""><dc:format>image/svg+xml</dc:format><dc:type
         rdf:resource="http://purl.org/dc/dcmitype/StillImage" /></cc:Work></rdf:RDF></metadata><defs
   id="defs7" /><sodipodi:namedview
   pagecolor="#ffffff"
   bordercolor="#666666"
   borderopacity="1"
   objecttolerance="10"
   gridtolerance="10"
   guidetolerance="10"
   inkscape:pageopacity="0"
   inkscape:pageshadow="2"
   inkscape:window-width="1366"
   inkscape:window-height="706"
   id="namedview5"
   showgrid="false"
   inkscape:zoom="2.36"
   inkscape:cx="-0.63559322"
   inkscape:cy="50"
   inkscape:window-x="-8"
   inkscape:window-y="-8"
   inkscape:window-maximized="1"
   inkscape:current-layer="Layer_1" />
<path
   clip-rule="evenodd"
   d="m 72.730376,84.838845 c -1.891174,0 -5.282544,0 -9.276264,0 0.05457,-0.497802 0.147743,-0.981954 0.147743,-1.491114 v -7.60104 c 3.820976,0 7.10779,0 9.128521,0 10.042278,0 18.182023,-8.142017 18.182023,-18.17975 0,-10.042279 -8.139745,-18.184298 -18.182023,-18.184298 -2.795842,0 -5.430288,0.656908 -7.791971,1.791153 L 61.260628,37.496022 C 57.04187,27.910624 47.513298,21.200618 36.366323,21.200618 c -15.063418,0 -27.2719008,12.208483 -27.2719008,27.271901 0,15.052052 12.1902988,27.25144 27.2355328,27.274172 v 7.60104 c 0,0.511428 0.09547,0.995588 0.15002,1.491114 -0.03637,0 -0.07955,0 -0.115925,0 C 16.279493,84.838845 -2.1882028e-7,68.559346 -2.1882028e-7,48.472519 -2.1882028e-7,28.390234 16.279493,12.108469 36.36405,12.108469 c 13.647315,0 25.523937,7.528299 31.742962,18.647997 1.509302,-0.259125 3.039052,-0.465972 4.621088,-0.465972 15.063416,0 27.2719,12.210756 27.2719,27.276447 0.002,15.058875 -12.206208,27.271904 -27.269624,27.271904 z M 33.897804,61.556121 c -1.775241,-1.770696 -1.775241,-4.652907 0,-6.423603 L 46.754103,42.273947 c 1.772969,-1.775243 4.652907,-1.775243 6.42815,0 l 12.854028,12.858571 c 1.775235,1.770696 1.775235,4.652907 0,6.423603 -1.772968,1.775243 -4.65291,1.775243 -6.425879,0 l -5.098423,-5.096149 v 26.885482 c 0,2.509435 -2.036641,4.546077 -4.543801,4.546077 -2.511706,0 -4.546075,-2.036642 -4.546075,-4.546077 V 56.459972 l -5.096149,5.096149 c -1.775242,1.777516 -4.652907,1.777516 -6.42815,0 z"
   id="path3"
   inkscape:connector-curvature="0"
   style="fill:#ffffff;fill-rule:evenodd" />
</svg>