<?xml version="1.0" encoding="iso-8859-1"?>
<!-- Uploaded to: SVG Repo, www.svgrepo.com, Generator: SVG Repo Mixer Tools -->
<svg height="800px" width="800px" version="1.1" id="Layer_1" xmlns="http://www.w3.org/2000/svg" xmlns:xlink="http://www.w3.org/1999/xlink" 
	 viewBox="0 0 512 512" xml:space="preserve">
<path style="fill:#80CB93;" d="M453.029,337.978c-16.875,79.562-79.605,138.647-154.409,138.647S161.085,417.54,144.212,337.978
	v-65.621h313.283L453.029,337.978z"/>
<path style="fill:#6DC180;" d="M298.62,272.357v204.268c74.804,0,137.534-59.084,154.409-138.647l4.465-65.621H298.62z"/>
<path style="fill:#95D5A7;" d="M434.798,204.268c0-85.111-102.134-85.111-102.134-170.223C332.664,15.243,317.422,0,298.62,0
	c-18.802,0-34.045,15.243-34.045,34.045c0,85.111-102.134,85.111-102.134,170.223l68.089,68.089
	c0,37.604,30.485,68.089,68.089,68.089s68.089-30.485,68.089-68.089L434.798,204.268z"/>
<path style="fill:#80CB93;" d="M332.664,34.045C332.664,15.243,317.422,0,298.62,0v340.446c37.604,0,68.089-30.485,68.089-68.089
	l68.089-68.089C434.798,119.156,332.664,119.156,332.664,34.045z"/>
<circle style="fill:#D3EDD7;" cx="162.439" cy="272.357" r="68.089"/>
<circle style="fill:#AEDEBA;" cx="434.796" cy="272.357" r="68.089"/>
<path style="fill:#58575D;" d="M162.441,295.053h-0.002c-12.514,0-22.694-10.182-22.694-22.696
	c0.005-12.517,10.186-22.696,22.696-22.696c12.515,0,22.696,10.182,22.696,22.696C185.138,284.871,174.956,295.053,162.441,295.053z
	"/>
<path style="fill:#454449;" d="M434.798,295.053h-0.002c-12.514,0-22.694-10.182-22.694-22.696
	c0.005-12.517,10.186-22.696,22.696-22.696c12.515,0,22.696,10.182,22.696,22.696C457.495,284.871,447.313,295.053,434.798,295.053z
	"/>
<path style="fill:#D3EDD7;" d="M315.642,272.357V4.565C310.633,1.667,304.824,0,298.62,0s-12.013,1.667-17.022,4.565v267.791
	H315.642z"/>
<path style="fill:#EBAFD1;" d="M104.369,512c-52.524,0-95.255-42.73-95.255-95.254c0-43.896,35.713-79.609,79.609-79.609
	c36.994,0,67.091,30.097,67.091,67.092c0,31.472-25.606,57.077-57.078,57.077c-27.055,0-49.065-22.011-49.065-49.066h34.045
	c0,8.283,6.739,15.022,15.02,15.022c12.7,0,23.033-10.333,23.033-23.032c0-18.222-14.824-33.047-33.046-33.047
	c-25.125,0-45.564,20.44-45.564,45.564c0,33.752,27.458,61.21,61.21,61.21c42.879,0,114.813-10.494,114.813-80.769h34.045
	C253.227,469.079,197.58,512,104.369,512z"/>
<path style="fill:#477E48;" d="M298.62,391.513c-34.322,0-51.048-5.146-68.758-10.596c-18.949-5.831-38.543-11.851-76.445-12.089
	c4.816,12.364,10.803,23.997,17.805,34.718c21.531,1.575,34.779,5.65,48.628,9.912c19.335,5.949,39.327,12.101,78.769,12.101
	s59.434-6.152,78.769-12.101c13.848-4.261,27.097-8.338,48.628-9.912c7.002-10.721,12.989-22.354,17.806-34.718
	c-37.903,0.238-57.497,6.26-76.446,12.089C349.667,386.366,332.941,391.513,298.62,391.513z"/>
<path style="fill:#417242;" d="M367.377,380.917c-17.709,5.449-34.436,10.596-68.758,10.596v34.045
	c39.442,0,59.434-6.152,78.769-12.101c13.848-4.261,27.097-8.338,48.628-9.912c7.002-10.721,12.989-22.354,17.806-34.718
	C405.92,369.066,386.327,375.086,367.377,380.917z"/>
</svg>